<svg xmlns="http://www.w3.org/2000/svg" viewBox="0 0 32 32">
  <rect width="32" height="32" rx="6" fill="#CC0000"/>
  <!-- gear icon (settings path, scaled to fit 32x32 with 4px padding on each side) -->
  <g transform="translate(4,4) scale(1.0)">
    <path fill="#fff" d="M19.14 12.94c.04-.3.06-.61.06-.94s-.02-.64-.07-.94l2.03-1.58a.49.49 0 0 0 .12-.61l-1.92-3.32a.49.49 0 0 0-.59-.22l-2.39.96a7.3 7.3 0 0 0-1.62-.94l-.36-2.54A.48.48 0 0 0 13.92 2h-3.84a.48.48 0 0 0-.47.41l-.36 2.54a7.3 7.3 0 0 0-1.62.94l-2.39-.96a.48.48 0 0 0-.59.22L2.73 8.47a.48.48 0 0 0 .12.61l2.03 1.58c-.05.3-.07.63-.07.94s.02.64.07.94L2.85 14.12a.49.49 0 0 0-.12.61l1.92 3.32c.12.22.37.29.59.22l2.39-.96c.5.38 1.03.7 1.62.94l.36 2.54c.04.24.24.41.47.41h3.84c.24 0 .44-.17.47-.41l.36-2.54a7.3 7.3 0 0 0 1.62-.94l2.39.96c.22.08.47 0 .59-.22l1.92-3.32a.49.49 0 0 0-.12-.61l-2.03-1.58zM12 15.6A3.6 3.6 0 1 1 12 8.4a3.6 3.6 0 0 1 0 7.2z"/>
  </g>
</svg>
